<?xml version="1.0" encoding="UTF-8"?>
<svg id="Layer_2" xmlns="http://www.w3.org/2000/svg" viewBox="0 0 140.05 205.04">
  <defs>
    <style>
      .cls-1 {
        fill: #303131;
      }

      .cls-2 {
        fill: #333;
        opacity: .94;
      }

      .cls-3 {
        fill: #e6e6e6;
      }
    </style>
  </defs>
  <g id="main_body">
    <path class="cls-1" d="M16.04,61.04c-.56-2.32-2.24-2.32-4-6-.67-1.4-1.3-3.15-2-8-.59-4.06-1.13-7.78-1-13,.07-2.79.21-8.75,2-14,.36-1.05.91-2.37,2-5,.23-.54,1.71-4.1,2-4,.26.09-1.08,2.97,0,4,.73.7,2.27.32,3,0C22.86,12.93,20.19.87,23.04.04c1.08-.31,2.21,1.19,6,6,9,11.42,9.91,12.13,12,16,2.37,4.39,3.65,7.99,4,9,2.33,6.72,2.28,12.02,3,12,.5-.01.99-2.59,1-5,.03-5.7-2.47-9.74-2-10,.45-.25,3,5,4,5,3,0,12.29-1,17-1,4.38,0,7.91-.16,11.74.04,4.17.21,7.67.61,10.26.96,0-.22,2-5,2-5,0,0,.6.18-1,13,.58.57,1.4,1.23,2,1,.96-.38.46-2.73,1-6,.1-.6.73-2.41,2-6,1.58-4.47,2.38-6.73,3-8,.63-1.28,1.43-2.54,3-5,4.82-7.56,7.27-10.36,9-12,.37-.35,1.58-1.23,4-3,1.13-.83,1.53-1.1,2-1,.88.19,1.37,1.55,2,5,1.18,6.49,1.71,8.59,3,9,.12.04.55.16,1,0,1.63-.56,1.26-3.84,2-4,.97-.21,3.58,4.98,5,12,.39,1.93,1.14,6.17,1,12-.27,11.55-3.82,22.36-6,25-.17.2-.78.91-1,2-.36,1.79.62,3.38,1,4,4.67,7.69,8.98,18.86,14,22,.12.07,1.11.69,1,1-.21.57-3.83-1.13-5,0-1.5,1.44,2.67,5.89,4,13,.83,4.46.17,7.92-1,14-1.13,5.91-2.08,5.59-4,14-.95,4.14-1.8,8.88-2,10-.44,2.43-.77,4.49-1,6-.33-.67-.67-1.33-1-2-.37-1.4-.97-3.14-2-5-.65-1.18-1.35-2.18-2-3-3.43,11.29-7.23,19.62-10,25-1.61,3.14-3.98,7.42-8,12-3.7,4.21-7.5,7.43-8,7-.33-.28.88-2,3-7,1.15-2.7,1.1-2.91,1-3-.88-.78-8.23,5.34-15,13-3.92,4.43-6.99,10.48-8,10-.68-.33.22-3.41-1-4-.36-.17-.76-.06-1,0-1.17.31-1.78,1.56-2,2-1.98,3.97-1.89,1.93-4,7-2.09,5.01-2.16,6.97-3,7-.33.01-.95-.26-3-6-1.94-5.41-2.87-9.34-5-10-.21-.07-.63-.19-1,0-1.22.62-.3,3.7-1,4-.78.34-2.78-3.09-5-6-3.23-4.23-3.69-3.11-8-8-2.63-2.98-6.3-7.76-10-9-.26-.09-.74-.23-1,0-1.19,1.08,4.59,8.51,4,9-.51.42-5.87-4.23-11-11-6.7-8.84-10.54-13.89-11-20,0-.11-.35-4.57-3-9-1.01-1.69-1.56-2.05-2-2-1.98.21-1.57,8.79-3,9-2.4.34-6.61-23.22-8-31,0,0-2.95-16.53,1-21,.02-.02,1.41-1.59,2-4,.19-.79.4-1.66,0-2-.98-.84-4.56,2.44-5,2-.56-.56,4.82-6.37,10-14,6.45-9.5,6.52-12.85,6-15Z"/>
    <path class="cls-3" d="M101.04,45.04c1.68-.27,2.8-5.77,4-10,.24-.85,1.48-5.13,4-10,2.56-4.94,3.62-5.04,4-5,.98.1,1.66,1.73,3,5,.71,1.73,1.39,3.39,2,6,.78,3.31.94,5.93,1,7,.65,11.51-.2,17.68,1,18,1.39.37,4.54-5.79,6-11,1.43-5.11,1.19-9.14,1-12-.24-3.6-1.03-7.97-2-8-.81-.02-1.13,3-2,3-1.01,0-1.49-4.05-3-9-1.1-3.61-3.33-10.93-6-11-1.4-.04-2.15,2.06-4,5-6.64,10.57-9.72,15.64-12,23,0,0-1.94,6.25,0,8,.93.84,2,1,2,1s.52.08,1,0Z"/>
    <path class="cls-3" d="M41.04,44.04c1-.72,1.14-2.27,1-4-.64-7.91-7.03-18.51-11-25-2.88-4.71-3.75-6.09-5-6-4.51.32-6.22,19.2-9,19-1.1-.08-1.25-3.04-2-3-1.56.08-3.19,13.02,0,24,1.16,3.99,2.96,8.19,4,8,0,0,.05,0,.12-.03,1.72-.66.58-12.59,1.88-21.97.89-6.41,3.39-15,6-15,1.13,0,2.42,3.01,5,9,2.52,5.85,3.79,8.78,4,10,.35,1.99.46,4.1,2,5,.89.52,2.17.59,3,0Z"/>
    <path class="cls-3" d="M46.04,50.04c0-.22-3.91.6-8-1-4.03-1.58-5.9-4.67-7-4-.79.48-.58,2.57,0,4,1,2.47,3.04,2.8,3,4-.05,1.6-3.72,1.81-7,4-1.43.96-2.41,2.01-7,11-2.41,4.72-6.5,12.72-6,13,.11.06.42-.29,1-1,2.45-3.02,3.67-4.53,5-7,3.29-6.13,8-14.88,15-17,1.21-.37,3.97-.98,4-2,.03-.89-2.06-1.32-2-2,.12-1.39,9.01-1.68,9-2Z"/>
    <path class="cls-3" d="M57.04,73.04c.83-1.07-1.46-3.61-1-4,.69-.59,7.89,3.6,10,11,1.51,5.32.58,12.97-3,14-3.68,1.06-9.3-8.52-10-8-.41.3,1.7,3.33,1,4-.69.66-3.04-1.97-7-3-4.67-1.22-8.71.84-9,0-.17-.5,1.15-1.41,2-2,2.18-1.51,4.03-1.86,4-2-.05-.22-4.4.24-11,2-6.34,1.69-7.62,2.53-8,2-1.08-1.53,7.81-10.84,17-14,1.21-.42,2.36-.81,4-1,5.97-.69,9.98,2.3,11,1Z"/>
    <path class="cls-3" d="M88.04,85.04c-.09-.06-.5-.14-4,4-2.52,2.98-2.91,3.72-4,4-1.71.43-3.8-.64-5-2-3.91-4.44.86-14.16,5-19,1.63-1.91,3.43-3.37,4-3,.68.44-.87,3.24,0,4,.88.77,3.48-1.26,5-2,8.79-4.27,27.59,11.89,26,15-.62,1.22-4.56.82-7,0-2.67-.9-3.15-2.17-6-3-2.99-.87-5.93-.48-6,0-.11.76,7.12,1.99,7,3-.09.76-4.27.97-6,1-3.12.05-3.46-.41-5,0-3.06.82-4.43,3.37-5,3-.73-.48,1.55-4.67,1-5Z"/>
    <path class="cls-3" d="M50.04,90.04c1.25.62,2.04,1.8,2,3-.06,1.73-1.81,2.74-3,3-2.14.46-4.39-1.06-5-3-.59-1.9.45-4.03,1-4,.67.03.31,3.26,2,4,.92.41,2.44.07,3-1,.46-.87.08-1.82,0-2Z"/>
    <path class="cls-3" d="M88.99,90.99c1.62,1.94,2.44,2.12,2.89,1.96,1.16-.43.64-3.48,1.92-3.91.66-.22,1.54.34,1.92.98.97,1.61-.34,5.1-2.89,5.87-1.84.55-4.02-.41-4.81-1.96-.49-.96-.65-2.52,0-2.93.15-.09.43-.19.96,0Z"/>
    <path class="cls-3" d="M89.04,68.04c-.44-1.08,1.39-2.4,1-3-.62-.96-5.47,2.15-12,2-2.03-.05-3.29-.09-4-1-2.15-2.75,3.31-10.07,4-11,1.21-1.63,1.84-2.46,3-3,3.5-1.65,7.15,1.1,8,0,1.14-1.47-4.61-7.39-4-8,.33-.33,2.2,1.25,5,3,1.94,1.22,4.65,2.91,8,4,1.67.54,6.42,2.09,12,1,2.55-.5,4.78-1.46,5-1,.18.36-1.03,1.38-2,2-2.66,1.7-4.76,1.2-5,2-.31,1,2.85,2.22,6,5,2.86,2.53,4.36,5.14,6,8,3.28,5.72,2.33,7.24,5,10,4.24,4.38,5,5,5,5,.46.37,1.08.85,1,1-.28.5-8.16-4.11-9-3-.55.73,2.42,3.34,5,7,3.96,5.6,5.14,11.04,6,15,2.86,13.15-.73,26.99-3,27-2.21,0-3.26-13.13-5-13-1.36.1-.93,8.19-3,18-3.11,14.77-10.41,26.53-12,26-.99-.33.6-5.35,1-17,.08-2.48.51-14.79-1-15-1.12-.15-1.38,6.64-6,16-5.67,11.49-13,20-13,20-1.2,1.4-4.63,5.26-4,6,.21.24.79.06,1,0,4.23-1.31,16.79-14.15,17-14,.09.06-1.03,2.9-8,12-1.19,1.55-13.21,17.17-15,16-.41-.27-.24-1.37,0-3,.38-2.57,1.27-3.8,1-4-.43-.32-3.4,2.21-6,6-3.69,5.38-3.71,9.02-5,9-1.99-.03-3.53-8.72-4-14-.34-3.8-.51-5.7,0-8,.83-3.75,3.35-9.27,8-13,.92-.73,2.18-1.61,2-2-.27-.59-3.37.96-7,1-5.95.07-11.34-3.95-11-5,.17-.52,1.72-.17,6,0,8.96.37,13.44.55,17-2,3.2-2.29,4.61-5.98,5-7,1.16-3.03.55-4.25,2-8,1.41-3.63,2.36-3.47,3-6,1.24-4.85-1.07-10.09-2-10-.4.04-.48,1.06-1,4-.22,1.26-1.15,5.17-3,13-1.73,7.32-2.14,8.13-3,9-1.77,1.79-3.84,2.19-8,3-6.15,1.2-10.92.43-13,0-2.74-.56-4.26-.88-6-2-1.36-.88-4.02-2.99-6-9-3.22-9.78-.6-17.66-2-18-1.01-.24-2.98,3.78-4,7-.93,2.94-1.49,6.55-1,12,.83,9.23,3.85,14.58,3,15-.74.37-3.97-3.23-6-8-3.54-8.33-1.5-15.72-3-16-.93-.17-2.45,2.53-3,5-.75,3.37.42,5.83,0,6-.61.24-4.18-4.54-6-11-3.36-11.89,1.12-22.68,0-23-.98-.28-3.38,8.28-5,8-1.49-.26-1.98-7.96,0-15,1.18-4.18,2.58-9.18,7-11,2.78-1.14,6.69-1.02,9,1,1.71,1.49.89,2.57,3,5,.56.65,3.22,3.71,7,4,2.2.17,3.07-.73,4,0,1.74,1.37.25,5.79,1,6,.27.08.69-.43,1-1,2-3.63-1-8.38,0-9,.56-.35,2.07.82,3,2,1.59,2.02,2.89,5.79,2,9-.15.54-.57,1.82,0,3,.26.53.74,1.09,1,1,.33-.12.12-1.19,0-3-.29-4.34.49-4.29,0-7-.17-.94-.37-1.56,0-2,.54-.63,1.99-.56,3,0,2.01,1.12,1.08,3.75,3,5,1.2.78,2.93.67,4,0,.94-.59.87-1.31,2-3,.41-.62,2.12-3.2,3-3,1.92.43,1,13,1,13,0,0,.92-.92,1-1,1.18-1.22-.93-6.37,0-10,.82-3.18,4.04-5.5,5-5,1.64.85-2.21,10.51-1,11,.44.18,1.47-.93,2-2,.92-1.87.14-3.25,1-4,.7-.61,1.61-.04,3,0,3.26.1,5.94-2.78,8-5,2.88-3.1,2.25-4.07,4-5,2.95-1.57,7.33-.18,10,2,4.63,3.79,4.9,10.61,5,13,.16,3.96-.72,7.81,0,8,.34.09.83-.71,1-1,1.63-2.75,1.22-6.35,0-12-1.25-5.79-2.12-8.07-1-9,1.21-1.01,3.42.7,4,0,1.03-1.25-4.24-8.87-12-14-5.63-3.72-9.18-6.06-14-6-1.37.02-4.49.25-5-1Z"/>
    <path class="cls-2" d="M79.04,140.04c.68-1.23,1.73-3.13,1-5-.77-1.98-3.07-2.7-4-3-1.62-.51-2.23-.19-6,0-5.18.27-6.42-.21-8,1-.32.24-1.68,1.34-2,3-.79,4.09,4.91,10.55,11,10,4.94-.45,7.6-5.28,8-6Z"/>
    <path class="cls-3" d="M66.04,135.04c.86-.56,1.9-.9,5-1,.75-.02,1.77-.04,3,0,.45.08,1.29.31,2,1,.98.95,1.48,2.56,1,3-.43.4-1.44-.38-3-1-4.53-1.78-8.81-.19-9-1-.07-.3.49-.67,1-1Z"/>
    <path class="cls-3" d="M67.04,191.04c.54-.21-.18-3.54-1-6-.16-.49-2.86-8.26-9-13-.76-.59-4-3-4-3,.48,6.74,0,7,0,7-1.54.82-6.66-5.92-9-9-5.51-7.25-10-15-10-15,0,0,.9,3.6,1,4,.23.88,1.18,4.27,5,10,6.75,10.12,10.65,9.87,15,17,.28.47,1.32,2.19,2,2,1.23-.35-.18-6.59,1-7,1.83-.64,7.85,13.45,9,13Z"/>
  </g>
</svg>